<svg width="34" height="34" viewBox="0 0 34 34" fill="none" xmlns="http://www.w3.org/2000/svg">
<path d="M22.7959 26.5608C23.0771 26.2795 23.235 25.8981 23.235 25.5003C23.235 25.1026 23.0771 24.7211 22.7959 24.4398L15.3709 17.0148L22.7959 9.58982C23.0691 9.30692 23.2203 8.92802 23.2169 8.53472C23.2135 8.14143 23.0557 7.76521 22.7776 7.4871C22.4995 7.20898 22.1233 7.05123 21.73 7.04781C21.3367 7.0444 20.9578 7.19559 20.6749 7.46882L12.1894 15.9543C11.9082 16.2356 11.7502 16.6171 11.7502 17.0148C11.7502 17.4126 11.9082 17.794 12.1894 18.0753L20.6749 26.5608C20.9562 26.842 21.3376 27 21.7354 27C22.1331 27 22.5146 26.842 22.7959 26.5608Z" fill="white"/>
</svg>
